<?xml version="1.0" ?><!DOCTYPE svg  PUBLIC '-//W3C//DTD SVG 1.1//EN'  'http://www.w3.org/Graphics/SVG/1.1/DTD/svg11.dtd'><svg height="512px" style="enable-background:new 0 0 512 512;" version="1.1" viewBox="0 0 512 512" width="512px" xml:space="preserve" xmlns="http://www.w3.org/2000/svg" xmlns:xlink="http://www.w3.org/1999/xlink"><g id="_x38_-wechat_x2C__messenger"><g><g><path d="M494.604,315.813c0-66.066-66.783-119.625-149.129-119.625     c-82.348,0-149.123,53.559-149.123,119.625c0,66.061,66.775,119.621,149.123,119.621c13.543,0,26.424-1.913,38.922-4.632     l80.381,34.537l-27.799-55.711C471.816,387.732,494.604,354.063,494.604,315.813L494.604,315.813z M494.604,315.813" style="fill:#9CDB53;"/><path d="M196.352,46.662c-98.844,0-178.955,66.955-178.955,149.526c0,47.606,26.784,89.841,68.33,117.169     l-23.593,47.311l64.271-27.604c13.781,4.908,28.103,8.949,43.4,10.832c-2.09-9.125-3.279-18.48-3.279-28.082     c0-82.452,80.257-149.532,178.949-149.532c9.039,0,17.865,0.751,26.574,1.825C356.305,98.963,283.68,46.662,196.352,46.662     L196.352,46.662z M196.352,46.662" style="fill:#9CDB53;"/><path d="M159.068,136.375c0,12.389-10.019,22.429-22.369,22.429c-12.353,0-22.369-10.04-22.369-22.429     c0-12.385,10.017-22.431,22.369-22.431C149.049,113.944,159.068,123.99,159.068,136.375L159.068,136.375z M159.068,136.375" style="fill:#FCFCFC;"/><path d="M278.369,136.375c0,12.389-10.016,22.429-22.367,22.429c-12.357,0-22.369-10.04-22.369-22.429     c0-12.385,10.012-22.431,22.369-22.431C268.354,113.944,278.369,123.99,278.369,136.375L278.369,136.375z M278.369,136.375" style="fill:#FCFCFC;"/><path d="M323.105,285.901c0,12.39-10.012,22.435-22.367,22.435c-12.352,0-22.369-10.045-22.369-22.435     c0-12.383,10.018-22.425,22.369-22.425C313.094,263.477,323.105,273.519,323.105,285.901L323.105,285.901z M323.105,285.901" style="fill:#FCFCFC;"/><path d="M412.582,285.901c0,12.39-10.012,22.435-22.369,22.435s-22.367-10.045-22.367-22.435     c0-12.383,10.01-22.425,22.367-22.425S412.582,273.519,412.582,285.901L412.582,285.901z M412.582,285.901" style="fill:#FCFCFC;"/></g></g></g><g id="Layer_1"/></svg>